<svg version="1.1" viewBox="0.0 0.0 960.0 720.0" fill="none" stroke="none" stroke-linecap="square" stroke-miterlimit="10" xmlns:xlink="http://www.w3.org/1999/xlink" xmlns="http://www.w3.org/2000/svg"><clipPath id="p.0"><path d="m0 0l960.0 0l0 720.0l-960.0 0l0 -720.0z" clip-rule="nonzero"/></clipPath><g clip-path="url(#p.0)"><path fill="#000000" fill-opacity="0.0" d="m0 0l960.0 0l0 720.0l-960.0 0z" fill-rule="evenodd"/><path fill="#fb8500" d="m126.01575 24.137794l144.0 0l0 144.0l-144.0 0z" fill-rule="evenodd"/><path stroke="#000000" stroke-width="1.0" stroke-linejoin="round" stroke-linecap="butt" d="m126.01575 24.137794l144.0 0l0 144.0l-144.0 0z" fill-rule="evenodd"/><path fill="#ff9900" d="m126.01575 200.04593l144.0 0l0 144.0l-144.0 0z" fill-rule="evenodd"/><path stroke="#000000" stroke-width="1.0" stroke-linejoin="round" stroke-linecap="butt" d="m126.01575 200.04593l144.0 0l0 144.0l-144.0 0z" fill-rule="evenodd"/><path fill="#fb8500" d="m314.00525 24.137794l144.0 0l0 144.0l-144.0 0z" fill-rule="evenodd"/><path stroke="#000000" stroke-width="1.0" stroke-linejoin="round" stroke-linecap="butt" d="m314.00525 24.137794l144.0 0l0 144.0l-144.0 0z" fill-rule="evenodd"/><path fill="#219ebc" d="m314.00525 200.04593l144.0 0l0 144.0l-144.0 0z" fill-rule="evenodd"/><path stroke="#000000" stroke-width="1.0" stroke-linejoin="round" stroke-linecap="butt" d="m314.00525 200.04593l144.0 0l0 144.0l-144.0 0z" fill-rule="evenodd"/><path fill="#219ebc" d="m689.98425 24.137794l144.0 0l0 144.0l-144.0 0z" fill-rule="evenodd"/><path stroke="#000000" stroke-width="1.0" stroke-linejoin="round" stroke-linecap="butt" d="m689.98425 24.137794l144.0 0l0 144.0l-144.0 0z" fill-rule="evenodd"/><path fill="#219ebc" d="m501.99475 24.137794l144.0 0l0 144.0l-144.0 0z" fill-rule="evenodd"/><path stroke="#000000" stroke-width="1.0" stroke-linejoin="round" stroke-linecap="butt" d="m501.99475 24.137794l144.0 0l0 144.0l-144.0 0z" fill-rule="evenodd"/><path fill="#fb8500" d="m501.99475 200.04593l144.0 0l0 144.0l-144.0 0z" fill-rule="evenodd"/><path stroke="#000000" stroke-width="1.0" stroke-linejoin="round" stroke-linecap="butt" d="m501.99475 200.04593l144.0 0l0 144.0l-144.0 0z" fill-rule="evenodd"/><path fill="#fb8500" d="m314.00525 375.95407l144.0 0l0 143.99997l-144.0 0z" fill-rule="evenodd"/><path stroke="#000000" stroke-width="1.0" stroke-linejoin="round" stroke-linecap="butt" d="m314.00525 375.95407l144.0 0l0 143.99997l-144.0 0z" fill-rule="evenodd"/><path fill="#219ebc" d="m689.98425 200.04593l144.0 0l0 144.0l-144.0 0z" fill-rule="evenodd"/><path stroke="#000000" stroke-width="1.0" stroke-linejoin="round" stroke-linecap="butt" d="m689.98425 200.04593l144.0 0l0 144.0l-144.0 0z" fill-rule="evenodd"/><path fill="#fb8500" d="m689.98425 375.95407l144.0 0l0 143.99997l-144.0 0z" fill-rule="evenodd"/><path stroke="#000000" stroke-width="1.0" stroke-linejoin="round" stroke-linecap="butt" d="m689.98425 375.95407l144.0 0l0 143.99997l-144.0 0z" fill-rule="evenodd"/><path fill="#219ebc" d="m501.99475 375.95407l144.0 0l0 143.99997l-144.0 0z" fill-rule="evenodd"/><path stroke="#000000" stroke-width="1.0" stroke-linejoin="round" stroke-linecap="butt" d="m501.99475 375.95407l144.0 0l0 143.99997l-144.0 0z" fill-rule="evenodd"/><path fill="#219ebc" d="m126.01575 375.95407l144.0 0l0 143.99997l-144.0 0z" fill-rule="evenodd"/><path stroke="#000000" stroke-width="1.0" stroke-linejoin="round" stroke-linecap="butt" d="m126.01575 375.95407l144.0 0l0 143.99997l-144.0 0z" fill-rule="evenodd"/><path fill="#219ebc" d="m126.01575 551.8622l144.0 0l0 144.0l-144.0 0z" fill-rule="evenodd"/><path stroke="#000000" stroke-width="1.0" stroke-linejoin="round" stroke-linecap="butt" d="m126.01575 551.8622l144.0 0l0 144.0l-144.0 0z" fill-rule="evenodd"/><path fill="#219ebc" d="m314.00525 551.8622l144.0 0l0 144.0l-144.0 0z" fill-rule="evenodd"/><path stroke="#000000" stroke-width="1.0" stroke-linejoin="round" stroke-linecap="butt" d="m314.00525 551.8622l144.0 0l0 144.0l-144.0 0z" fill-rule="evenodd"/><path fill="#fb8500" d="m501.99475 551.8622l144.0 0l0 144.0l-144.0 0z" fill-rule="evenodd"/><path stroke="#000000" stroke-width="1.0" stroke-linejoin="round" stroke-linecap="butt" d="m501.99475 551.8622l144.0 0l0 144.0l-144.0 0z" fill-rule="evenodd"/><path fill="#fb8500" d="m689.98425 551.8622l144.0 0l0 144.0l-144.0 0z" fill-rule="evenodd"/><path stroke="#000000" stroke-width="1.0" stroke-linejoin="round" stroke-linecap="butt" d="m689.98425 551.8622l144.0 0l0 144.0l-144.0 0z" fill-rule="evenodd"/></g></svg>