<svg xmlns="http://www.w3.org/2000/svg" viewBox="0 0 24 24" id="chain">
  <path fill="#A22C29" d="M14.89,10.87c-1.89,1.13-.38.21-1.72,1a3,3,0,0,0-3.93-1.16c-.53.21-.81.58-5,4.81a3,3,0,0,0,4.24,4.24l2.6-2.6a7.12,7.12,0,0,0,2.43.4L9.88,21.19a5,5,0,0,1-7.07-7.07L7.05,9.88A5,5,0,0,1,14.89,10.87Z"></path>
  <rect width="2" height="3.61" x="6.4" y="1.36" fill="#b9d9f4" transform="rotate(-11.31 7.385 3.179)"></rect>
  <rect width="2" height="3.61" x="2.16" y="5.6" fill="#b9d9f4" transform="rotate(-78.69 3.16 7.404)"></rect>
  <rect width="2" height="3.61" x="19.84" y="14.79" fill="#0084f0" transform="rotate(-78.69 20.843 16.597)"></rect>
  <rect width="2" height="3.61" x="15.6" y="19.04" fill="#0084f0" transform="rotate(-11.31 16.601 20.816)"></rect>
  <path fill="#B9BAA3" d="M21.19,9.88,17,14.12a5,5,0,0,1-7.84-1l1.72-1a3,3,0,0,0,4.71.6l4.24-4.25a3,3,0,1,0-4.24-4.24l-2.6,2.6a7.12,7.12,0,0,0-2.35-.4c-.12,0-.5.42,3.53-3.61a5,5,0,0,1,7.07,7.07Z"></path>
</svg>
